<svg xmlns="http://www.w3.org/2000/svg" width="75.825" height="47" viewBox="13.312 -0.541 75.825 47"><path fill="#B56B21" d="M71.094 4.299S74.659-1.913 80.6.971c-.471.267-.303.97-1.447 1.584.919-.207 3.253-1.121 5.702 1.873 1.946 2.382 2.437 3.063 3.282 3.169H69.825l1.269-3.298z"/><path fill="#E4B26F" d="M71.094 10.895s3.565 6.212 9.506 3.328c-.471-.266-.303-.969-1.447-1.584.919.207 3.253 1.12 5.702-1.874 1.946-2.381 2.437-3.063 3.282-3.168H69.825l1.269 3.298z"/><path fill="#FFE7BC" d="M71.186 5.035L70.2 7.597l.985 2.563s2.77 4.825 7.384 2.585c-.365-.206-.235-.752-1.125-1.23.714.161 2.526.87 4.429-1.455 1.514-1.85 1.895-2.379 2.551-2.461-.656-.082-1.037-.611-2.551-2.462-1.9-2.325-3.715-1.616-4.429-1.455.89-.479.76-1.022 1.125-1.229-4.613-2.244-7.383 2.582-7.383 2.582z"/><path fill="#F9C55E" d="M70.744 6.052L70.147 7.6l.597 1.55s1.673 2.916 4.462 1.563c-.221-.125-.142-.455-.68-.744.432.099 1.526.526 2.677-.879.914-1.118 1.145-1.438 1.541-1.488-.396-.049-.627-.368-1.541-1.486-1.148-1.405-2.245-.978-2.677-.88.538-.289.459-.619.68-.743-2.789-1.358-4.462 1.559-4.462 1.559z"/><path fill="#B56B21" d="M71.094 35.023s3.565-6.213 9.506-3.328c-.471.266-.303.969-1.447 1.584.919-.207 3.253-1.12 5.702 1.873 1.946 2.382 2.437 3.063 3.282 3.169H69.825l1.269-3.298z"/><path fill="#E4B26F" d="M71.094 41.619s3.565 6.212 9.506 3.328c-.471-.267-.303-.97-1.447-1.584.919.207 3.253 1.121 5.702-1.873 1.946-2.382 2.437-3.063 3.282-3.169H69.825l1.269 3.298z"/><path fill="#FFE7BC" d="M71.186 35.76l-.986 2.561.985 2.563s2.77 4.825 7.384 2.585c-.365-.206-.235-.752-1.125-1.229.714.161 2.526.871 4.429-1.455 1.514-1.85 1.895-2.379 2.551-2.462-.656-.081-1.037-.611-2.551-2.46-1.9-2.326-3.715-1.616-4.429-1.456.89-.479.76-1.023 1.125-1.23-4.613-2.243-7.383 2.583-7.383 2.583z"/><path fill="#F9C55E" d="M70.744 36.776l-.597 1.548.597 1.549s1.673 2.916 4.462 1.563c-.221-.125-.142-.454-.68-.743.432.098 1.526.525 2.677-.879.914-1.118 1.145-1.438 1.541-1.488-.396-.049-.627-.369-1.541-1.487-1.148-1.405-2.245-.977-2.677-.88.538-.289.459-.619.68-.743-2.789-1.356-4.462 1.56-4.462 1.56zM14.908 6.048l-.597 1.548.597 1.548s1.674 2.916 4.463 1.563c-.222-.125-.144-.454-.681-.744.433.1 1.527.527 2.678-.879.914-1.117 1.145-1.438 1.541-1.487-.397-.05-.627-.369-1.541-1.486-1.149-1.406-2.245-.978-2.678-.88.537-.289.459-.619.681-.743-2.789-1.356-4.463 1.56-4.463 1.56zm0 30.725l-.597 1.547.597 1.549s1.674 2.916 4.463 1.563c-.222-.125-.144-.455-.681-.742.433.096 1.527.525 2.678-.881.914-1.117 1.145-1.438 1.541-1.486-.397-.051-.627-.371-1.541-1.488-1.149-1.406-2.245-.977-2.678-.879.537-.289.459-.619.681-.744-2.789-1.355-4.463 1.561-4.463 1.561z"/><path fill="#FFE7BC" d="M43.105 5.034l-.985 2.562.985 2.563s2.771 4.825 7.384 2.586c-.364-.207-.234-.752-1.124-1.231.714.161 2.526.87 4.429-1.455 1.512-1.849 1.895-2.379 2.551-2.461-.656-.082-1.039-.611-2.551-2.461-1.902-2.325-3.716-1.615-4.429-1.455.89-.479.76-1.023 1.124-1.23-4.613-2.244-7.384 2.582-7.384 2.582z"/><path fill="#F9C55E" d="M42.664 6.051l-.596 1.548.596 1.55s1.675 2.916 4.464 1.563c-.222-.125-.144-.455-.681-.744.431.099 1.526.526 2.676-.879.914-1.119 1.146-1.439 1.541-1.489-.396-.049-.627-.368-1.541-1.485-1.149-1.406-2.245-.979-2.676-.881.537-.289.459-.618.681-.743-2.789-1.356-4.464 1.56-4.464 1.56z"/><path fill="#FFE7BC" d="M43.105 35.759l-.985 2.563.985 2.562s2.771 4.825 7.384 2.585c-.364-.206-.234-.751-1.124-1.229.714.162 2.526.871 4.429-1.455 1.512-1.85 1.895-2.379 2.551-2.461-.656-.082-1.039-.612-2.551-2.461-1.902-2.326-3.716-1.616-4.429-1.455.89-.479.76-1.024 1.124-1.231-4.613-2.243-7.384 2.582-7.384 2.582z"/><path fill="#F9C55E" d="M42.664 36.776l-.596 1.547.596 1.549s1.675 2.916 4.464 1.563c-.222-.125-.144-.453-.681-.743.431.098 1.526.525 2.676-.879.914-1.118 1.146-1.438 1.541-1.488-.396-.049-.627-.369-1.541-1.486-1.149-1.406-2.245-.978-2.676-.88.537-.29.459-.619.681-.744-2.789-1.356-4.464 1.561-4.464 1.561z"/></svg>