<?xml version="1.0" encoding="utf-8"?>
<!-- Generator: Adobe Illustrator 16.0.0, SVG Export Plug-In . SVG Version: 6.00 Build 0)  -->
<!DOCTYPE svg PUBLIC "-//W3C//DTD SVG 1.1//EN" "http://www.w3.org/Graphics/SVG/1.1/DTD/svg11.dtd">
<svg version="1.1" id="Слой_1" xmlns="http://www.w3.org/2000/svg" xmlns:xlink="http://www.w3.org/1999/xlink" x="0px" y="0px"
	 width="75.825px" height="47px" viewBox="13.312 -0.541 75.825 47" enable-background="new 13.312 -0.541 75.825 47"
	 xml:space="preserve">
<g>
	<path fill="#B56B21" d="M71.094,4.299c0,0,3.565-6.212,9.506-3.328c-0.471,0.267-0.303,0.97-1.447,1.584
		c0.919-0.207,3.253-1.121,5.702,1.873c1.946,2.382,2.437,3.063,3.282,3.169H69.825L71.094,4.299z"/>
	<path fill="#E4B26F" d="M71.094,10.895c0,0,3.565,6.212,9.506,3.328c-0.471-0.266-0.303-0.969-1.447-1.584
		c0.919,0.207,3.253,1.12,5.702-1.874c1.946-2.381,2.437-3.063,3.282-3.168H69.825L71.094,10.895z"/>
	<path fill="#FFE7BC" d="M71.186,5.035L70.2,7.597l0.985,2.563c0,0,2.77,4.825,7.384,2.585c-0.365-0.206-0.235-0.752-1.125-1.23
		c0.714,0.161,2.526,0.87,4.429-1.455c1.514-1.85,1.895-2.379,2.551-2.461c-0.656-0.082-1.037-0.611-2.551-2.462
		c-1.9-2.325-3.715-1.616-4.429-1.455c0.89-0.479,0.76-1.022,1.125-1.229C73.956,0.209,71.186,5.035,71.186,5.035z"/>
	<path fill="#F9C55E" d="M70.744,6.052L70.147,7.6l0.597,1.55c0,0,1.673,2.916,4.462,1.563c-0.221-0.125-0.142-0.455-0.68-0.744
		c0.432,0.099,1.526,0.526,2.677-0.879c0.914-1.118,1.145-1.438,1.541-1.488c-0.396-0.049-0.627-0.368-1.541-1.486
		c-1.148-1.405-2.245-0.978-2.677-0.88c0.538-0.289,0.459-0.619,0.68-0.743C72.417,3.135,70.744,6.052,70.744,6.052z"/>
	<path fill="#B56B21" d="M71.094,35.023c0,0,3.565-6.213,9.506-3.328c-0.471,0.266-0.303,0.969-1.447,1.584
		c0.919-0.207,3.253-1.12,5.702,1.873c1.946,2.382,2.437,3.063,3.282,3.169H69.825L71.094,35.023z"/>
	<path fill="#E4B26F" d="M71.094,41.619c0,0,3.565,6.212,9.506,3.328c-0.471-0.267-0.303-0.97-1.447-1.584
		c0.919,0.207,3.253,1.121,5.702-1.873c1.946-2.382,2.437-3.063,3.282-3.169H69.825L71.094,41.619z"/>
	<path fill="#FFE7BC" d="M71.186,35.76L70.2,38.321l0.985,2.563c0,0,2.77,4.825,7.384,2.585c-0.365-0.206-0.235-0.752-1.125-1.229
		c0.714,0.161,2.526,0.871,4.429-1.455c1.514-1.85,1.895-2.379,2.551-2.462c-0.656-0.081-1.037-0.611-2.551-2.46
		c-1.9-2.326-3.715-1.616-4.429-1.456c0.89-0.479,0.76-1.023,1.125-1.23C73.956,30.934,71.186,35.76,71.186,35.76z"/>
	<path fill="#F9C55E" d="M70.744,36.776l-0.597,1.548l0.597,1.549c0,0,1.673,2.916,4.462,1.563c-0.221-0.125-0.142-0.454-0.68-0.743
		c0.432,0.098,1.526,0.525,2.677-0.879c0.914-1.118,1.145-1.438,1.541-1.488c-0.396-0.049-0.627-0.369-1.541-1.487
		c-1.148-1.405-2.245-0.977-2.677-0.88c0.538-0.289,0.459-0.619,0.68-0.743C72.417,33.86,70.744,36.776,70.744,36.776z"/>
</g>
<g>
	<path fill="#F9C55E" d="M14.908,6.048l-0.597,1.548l0.597,1.548c0,0,1.674,2.916,4.463,1.563c-0.222-0.125-0.144-0.454-0.681-0.744
		c0.433,0.1,1.527,0.527,2.678-0.879c0.914-1.117,1.145-1.438,1.541-1.487c-0.397-0.05-0.627-0.369-1.541-1.486
		c-1.149-1.406-2.245-0.978-2.678-0.88c0.537-0.289,0.459-0.619,0.681-0.743C16.582,3.132,14.908,6.048,14.908,6.048z"/>
	<path fill="#F9C55E" d="M14.908,36.773l-0.597,1.547l0.597,1.549c0,0,1.674,2.916,4.463,1.563
		c-0.222-0.125-0.144-0.455-0.681-0.742c0.433,0.096,1.527,0.525,2.678-0.881c0.914-1.117,1.145-1.438,1.541-1.486
		c-0.397-0.051-0.627-0.371-1.541-1.488c-1.149-1.406-2.245-0.977-2.678-0.879c0.537-0.289,0.459-0.619,0.681-0.744
		C16.582,33.857,14.908,36.773,14.908,36.773z"/>
</g>
<g>
	<path fill="#FFE7BC" d="M43.105,5.034L42.12,7.596l0.985,2.563c0,0,2.771,4.825,7.384,2.586c-0.364-0.207-0.234-0.752-1.124-1.231
		c0.714,0.161,2.526,0.87,4.429-1.455c1.512-1.849,1.895-2.379,2.551-2.461c-0.656-0.082-1.039-0.611-2.551-2.461
		c-1.902-2.325-3.716-1.615-4.429-1.455c0.89-0.479,0.76-1.023,1.124-1.23C45.876,0.208,43.105,5.034,43.105,5.034z"/>
	<path fill="#F9C55E" d="M42.664,6.051l-0.596,1.548l0.596,1.55c0,0,1.675,2.916,4.464,1.563c-0.222-0.125-0.144-0.455-0.681-0.744
		c0.431,0.099,1.526,0.526,2.676-0.879C50.037,7.97,50.269,7.65,50.664,7.6c-0.396-0.049-0.627-0.368-1.541-1.485
		c-1.149-1.406-2.245-0.979-2.676-0.881c0.537-0.289,0.459-0.618,0.681-0.743C44.339,3.135,42.664,6.051,42.664,6.051z"/>
	<path fill="#FFE7BC" d="M43.105,35.759l-0.985,2.563l0.985,2.562c0,0,2.771,4.825,7.384,2.585
		c-0.364-0.206-0.234-0.751-1.124-1.229c0.714,0.162,2.526,0.871,4.429-1.455c1.512-1.85,1.895-2.379,2.551-2.461
		c-0.656-0.082-1.039-0.612-2.551-2.461c-1.902-2.326-3.716-1.616-4.429-1.455c0.89-0.479,0.76-1.024,1.124-1.231
		C45.876,30.934,43.105,35.759,43.105,35.759z"/>
	<path fill="#F9C55E" d="M42.664,36.776l-0.596,1.547l0.596,1.549c0,0,1.675,2.916,4.464,1.563
		c-0.222-0.125-0.144-0.453-0.681-0.743c0.431,0.098,1.526,0.525,2.676-0.879c0.914-1.118,1.146-1.438,1.541-1.488
		c-0.396-0.049-0.627-0.369-1.541-1.486c-1.149-1.406-2.245-0.978-2.676-0.88c0.537-0.29,0.459-0.619,0.681-0.744
		C44.339,33.859,42.664,36.776,42.664,36.776z"/>
</g>
</svg>
